<svg xmlns="http://www.w3.org/2000/svg" viewBox="0 0 160 240" fill="none" aria-hidden="true">
  <!-- cabeza -->
  <ellipse cx="80" cy="32" rx="20" ry="24" fill="#f5d5c8" stroke="#8b4a38" stroke-width="1.4"/>
  <!-- cuello -->
  <path d="M70 52 L80 62 L90 52" stroke="#a67c29" stroke-width="1.1" fill="none"/>
  <!-- hombros / strapless -->
  <path d="M52 58 Q80 48 108 58" stroke="#c9a227" stroke-width="1.3" fill="none"/>
  <!-- corpiþo -->
  <path d="M54 60 Q80 52 106 60 L112 88 Q80 98 48 88 Z" fill="#fce7f3" stroke="#be185d" stroke-width="1.4" stroke-linejoin="round"/>
  <!-- cintura -->
  <path d="M48 88 Q80 96 112 88" stroke="#a67c29" stroke-width="1.1" fill="none"/>
  <!-- falda larga acampanada -->
  <path d="M52 92 Q38 155 28 218 Q80 235 132 218 Q122 155 108 92 Q80 100 52 92 Z" fill="#fef3f8" stroke="#9f1239" stroke-width="1.6" stroke-linejoin="round"/>
  <!-- pliegues -->
  <path d="M64 100 Q58 160 52 220" stroke="#fbcfe8" stroke-width="1" fill="none" opacity="0.85"/>
  <path d="M80 102 L80 228" stroke="#fbcfe8" stroke-width="0.9" fill="none" opacity="0.7"/>
  <path d="M96 100 Q102 160 108 220" stroke="#fbcfe8" stroke-width="1" fill="none" opacity="0.85"/>
</svg>
